<svg xmlns="http://www.w3.org/2000/svg" xmlns:xlink="http://www.w3.org/1999/xlink" width="40" zoomAndPan="magnify" viewBox="0 0 30 30.000001" height="40" preserveAspectRatio="xMidYMid meet" version="1.0"><defs><clipPath id="id1"><path d="M 2 2.902344 L 22 2.902344 L 22 15 L 2 15 Z M 2 2.902344 " clip-rule="nonzero"/></clipPath><clipPath id="id2"><path d="M 3 12 L 25 12 L 25 24.675781 L 3 24.675781 Z M 3 12 " clip-rule="nonzero"/></clipPath><clipPath id="id3"><path d="M 0.484375 9 L 20 9 L 20 18 L 0.484375 18 Z M 0.484375 9 " clip-rule="nonzero"/></clipPath><clipPath id="id4"><path d="M 18 3 L 29.515625 3 L 29.515625 14 L 18 14 Z M 18 3 " clip-rule="nonzero"/></clipPath></defs><g clip-path="url(#id1)"><path fill="#9b3da8" d="M 4.3125 14.472656 C 4.296875 14.246094 4.285156 14.019531 4.285156 13.789062 C 4.285156 12.859375 4.425781 11.964844 4.6875 11.121094 C 5.039062 12.109375 6.289062 12.828125 7.15625 13.332031 C 7.410156 13.476562 7.671875 13.613281 7.914062 13.777344 C 8.378906 13.65625 8.839844 13.523438 9.292969 13.378906 C 9.207031 13.136719 9.164062 12.820312 9.214844 12.65625 C 9.34375 12.242188 9.730469 12.351562 10.097656 12.320312 C 11.292969 12.214844 10.925781 10.308594 11.457031 9.601562 C 11.847656 9.082031 12.636719 8.769531 12.640625 8.121094 C 12.640625 7.585938 12.0625 7.183594 12.050781 6.648438 C 12.050781 6.59375 12.054688 6.542969 12.0625 6.488281 C 12.09375 6.28125 12.179688 6.082031 12.164062 5.875 C 12.132812 5.460938 11.742188 5.167969 11.421875 4.863281 C 12.105469 4.703125 12.820312 4.617188 13.554688 4.617188 C 14.507812 4.617188 15.429688 4.761719 16.296875 5.027344 C 16.050781 5.6875 16.585938 6.820312 17.179688 7.195312 C 17.628906 7.472656 18.253906 7.582031 18.453125 8.066406 C 18.488281 8.152344 18.503906 8.238281 18.507812 8.324219 C 19.320312 7.625 20.085938 6.875 20.800781 6.074219 C 20.90625 5.957031 20.976562 5.875 21.042969 5.816406 C 19.082031 4.011719 16.449219 2.90625 13.554688 2.90625 C 7.480469 2.90625 2.554688 7.777344 2.554688 13.792969 C 2.554688 14.082031 2.566406 14.367188 2.589844 14.652344 C 3.171875 14.605469 3.742188 14.546875 4.3125 14.472656 Z M 4.3125 14.472656 " fill-opacity="1" fill-rule="nonzero"/></g><g clip-path="url(#id2)"><path fill="#9b3da8" d="M 23.15625 13.070312 C 23.078125 13.117188 23.019531 13.148438 22.992188 13.164062 C 21.1875 14.257812 19.253906 15.160156 17.230469 15.859375 C 17.21875 15.949219 17.21875 16.039062 17.234375 16.128906 C 17.328125 16.636719 17.828125 17.066406 18.347656 17.082031 C 18.585938 17.089844 18.855469 17.035156 19.039062 17.1875 C 19.152344 17.277344 19.199219 17.421875 19.238281 17.5625 C 19.492188 18.464844 19.558594 19.417969 19.441406 20.347656 C 19.414062 20.535156 19.386719 20.726562 19.398438 20.914062 C 17.804688 22.195312 15.769531 22.964844 13.558594 22.964844 C 13.113281 22.964844 12.679688 22.933594 12.253906 22.875 C 12.257812 22.796875 12.261719 22.722656 12.273438 22.644531 C 12.335938 22.261719 12.539062 21.90625 12.835938 21.65625 C 13.035156 21.488281 13.296875 21.328125 13.300781 21.070312 C 13.308594 20.796875 13.019531 20.625 12.828125 20.425781 C 12.449219 20.042969 12.402344 19.429688 12.730469 19.019531 C 13.160156 18.488281 13.5625 17.933594 13.964844 17.378906 C 14.101562 17.191406 14.246094 16.976562 14.214844 16.746094 C 14.214844 16.742188 14.214844 16.742188 14.214844 16.742188 C 12.480469 17.152344 10.703125 17.425781 8.90625 17.546875 C 8.476562 17.574219 8.050781 17.59375 7.625 17.605469 C 7.585938 17.992188 7.617188 18.386719 7.730469 18.738281 C 7.972656 19.492188 8.628906 20.070312 9.378906 20.34375 C 9.578125 20.414062 9.785156 20.46875 9.953125 20.597656 C 10.117188 20.722656 10.230469 20.949219 10.152344 21.140625 C 10.105469 21.257812 9.992188 21.351562 9.992188 21.472656 C 9.992188 21.558594 10.042969 21.636719 10.09375 21.703125 C 10.1875 21.832031 10.359375 22.136719 10.566406 22.476562 C 8.136719 21.660156 6.164062 19.867188 5.113281 17.574219 C 4.824219 17.558594 4.535156 17.539062 4.25 17.515625 L 4.207031 17.511719 C 3.917969 17.488281 3.558594 17.457031 3.175781 17.402344 C 4.679688 21.640625 8.761719 24.679688 13.558594 24.679688 C 19.632812 24.679688 24.558594 19.804688 24.558594 13.792969 C 24.558594 13.277344 24.519531 12.773438 24.453125 12.277344 C 24.199219 12.464844 23.792969 12.707031 23.15625 13.070312 Z M 23.15625 13.070312 " fill-opacity="1" fill-rule="nonzero"/></g><g clip-path="url(#id3)"><path fill="#9b3da8" d="M 17.425781 9.703125 C 17.308594 9.65625 12.914062 13.910156 4.15625 14.933594 C 3.640625 14.992188 2.066406 15.164062 1.640625 15.085938 C 1.15625 15 0.753906 14.707031 1.234375 13.859375 C 0.90625 14.246094 0.515625 14.558594 0.511719 15.117188 C 0.496094 16.78125 3.082031 16.984375 4.285156 17.085938 C 5.8125 17.21875 7.964844 17.074219 9.472656 16.816406 C 13.148438 16.1875 15.046875 15.042969 19.457031 12.851562 C 19.457031 12.851562 19.460938 11.574219 19.457031 10.609375 C 19.457031 10.609375 18.625 10.1875 17.425781 9.703125 Z M 17.425781 9.703125 " fill-opacity="1" fill-rule="nonzero"/></g><g clip-path="url(#id4)"><path fill="#9b3da8" d="M 29.195312 4.679688 C 28.886719 4.195312 27.609375 4.4375 27.117188 4.742188 L 26.585938 5.070312 L 21.324219 3.816406 C 21.171875 3.773438 21 3.800781 20.851562 3.890625 C 20.542969 4.082031 20.476562 4.46875 20.714844 4.671875 L 23.472656 6.824219 L 20.617188 9.285156 L 19.269531 8.726562 C 19.109375 8.660156 18.929688 8.671875 18.785156 8.765625 L 18.308594 9.058594 C 18.199219 9.128906 18.203125 9.289062 18.320312 9.351562 L 20.078125 10.304688 L 20.160156 12.253906 C 20.164062 12.386719 20.3125 12.460938 20.421875 12.390625 L 20.894531 12.097656 C 21.042969 12.007812 21.132812 11.851562 21.144531 11.683594 L 21.210938 10.351562 L 24.5625 8.789062 L 25.429688 12.742188 C 25.507812 13.042969 25.890625 13.152344 26.195312 12.960938 C 26.34375 12.871094 26.445312 12.726562 26.46875 12.570312 L 27.707031 6.835938 L 28.238281 6.503906 C 28.726562 6.199219 29.503906 5.164062 29.195312 4.679688 Z M 28.164062 6.117188 C 28.269531 5.261719 27.414062 4.925781 27.414062 4.925781 C 27.414062 4.925781 28.289062 4.519531 28.601562 5.019531 C 28.933594 5.546875 28.164062 6.117188 28.164062 6.117188 Z M 28.164062 6.117188 " fill-opacity="1" fill-rule="nonzero"/></g></svg>